ffmpeg started on 2016-12-12 at 09:09:37
Report written to "Output/theora/results/ffmpeg/crowd_run_2160p5011000k.log"
Command line:
Tools/ffmpeg/ffmpeg -benchmark -y -i Input/y4m/crowd_run_2160p50.y4m -c:v libtheora -b:v 11000k -an Output/theora/encoded/crowd_run_2160p5011000k.mkv
ffmpeg version N-82227-gdb23fde Copyright (c) 2000-2016 the FFmpeg developers
  built with gcc 5.4.0 (Ubuntu 5.4.0-6ubuntu1~16.04.2) 20160609
  configuration: --prefix=/home/jaroslav/ffmpeg_build --pkg-config-flags=--static --extra-cflags=-I/home/jaroslav/ffmpeg_build/include --extra-ldflags=-L/home/jaroslav/ffmpeg_build/lib --bindir=/home/jaroslav/bin --enable-gpl --enable-libass --enable-libfdk-aac --enable-libfreetype --enable-libmp3lame --enable-libopus --enable-libtheora --enable-libvorbis --enable-libvpx --enable-libx264 --enable-libx265 --enable-nvenc --enable-libmfx --enable-libxvid --enable-libgsm --enable-libopencore-amrnb --enable-version3 --enable-nonfree
  libavutil      55. 35.100 / 55. 35.100
  libavcodec     57. 66.101 / 57. 66.101
  libavformat    57. 57.100 / 57. 57.100
  libavdevice    57.  2.100 / 57.  2.100
  libavfilter     6. 66.100 /  6. 66.100
  libswscale      4.  3.100 /  4.  3.100
  libswresample   2.  4.100 /  2.  4.100
  libpostproc    54.  2.100 / 54.  2.100
Input #0, yuv4mpegpipe, from 'Input/y4m/crowd_run_2160p50.y4m':
  Duration: 00:00:10.00, start: 0.000000, bitrate: 4976642 kb/s
    Stream #0:0: Video: rawvideo (I420 / 0x30323449), yuv420p(progressive), 3840x2160, SAR 1:1 DAR 16:9, 50 fps, 50 tbr, 50 tbn, 50 tbc
Output #0, matroska, to 'Output/theora/encoded/crowd_run_2160p5011000k.mkv':
  Metadata:
    encoder         : Lavf57.57.100
    Stream #0:0: Video: theora (libtheora) (theo / 0x6F656874), yuv420p, 3840x2160 [SAR 1:1 DAR 16:9], q=2-31, 11000 kb/s, 50 fps, 1k tbn, 50 tbc
    Metadata:
      encoder         : Lavc57.66.101 libtheora
Stream mapping:
  Stream #0:0 -> #0:0 (rawvideo (native) -> theora (libtheora))
Press [q] to stop, [?] for help
frame=    3 fps=0.0 q=-0.0 size=       4kB time=00:00:00.04 bitrate= 779.5kbits/s speed=0.0521x    frame=    5 fps=3.4 q=-0.0 size=       4kB time=00:00:00.08 bitrate= 394.6kbits/s speed=0.0552x    frame=    7 fps=3.3 q=-0.0 size=       4kB time=00:00:00.12 bitrate= 264.1kbits/s speed=0.0563x    frame=    9 fps=3.2 q=-0.0 size=       4kB time=00:00:00.16 bitrate= 198.5kbits/s speed=0.0567x    frame=   10 fps=1.6 q=-0.0 size=       4kB time=00:00:00.18 bitrate= 176.6kbits/s speed=0.0293x    frame=   11 fps=1.1 q=-0.0 size=       4kB time=00:00:00.20 bitrate= 159.0kbits/s speed=0.0195x    frame=   12 fps=1.0 q=-0.0 size=       4kB time=00:00:00.22 bitrate= 144.6kbits/s speed=0.0182x    frame=   14 fps=1.1 q=-0.0 size=     504kB time=00:00:00.26 bitrate=15827.9kbits/s speed=0.0206x    frame=   16 fps=1.2 q=-0.0 size=     504kB time=00:00:00.30 bitrate=13724.5kbits/s speed=0.0221x    frame=   18 fps=1.3 q=-0.0 size=     504kB time=00:00:00.34 bitrate=12114.6kbits/s speed=0.0238x    frame=   20 fps=1.3 q=-0.0 size=     504kB time=00:00:00.38 bitrate=10842.7kbits/s speed=0.0254x    frame=   22 fps=1.4 q=-0.0 size=     504kB time=00:00:00.42 bitrate=9812.5kbits/s speed=0.0266x    frame=   24 fps=1.5 q=-0.0 size=     504kB time=00:00:00.46 bitrate=8961.1kbits/s speed=0.028x    frame=   26 fps=1.5 q=-0.0 size=    1015kB time=00:00:00.50 bitrate=16590.9kbits/s speed=0.0294x    frame=   28 fps=1.6 q=-0.0 size=    1015kB time=00:00:00.54 bitrate=15364.2kbits/s speed=0.0305x    frame=   30 fps=1.6 q=-0.0 size=    1015kB time=00:00:00.58 bitrate=14306.4kbits/s speed=0.0316x    frame=   32 fps=1.7 q=-0.0 size=    1015kB time=00:00:00.62 bitrate=13384.9kbits/s speed=0.0325x    frame=   34 fps=1.7 q=-0.0 size=    1015kB time=00:00:00.66 bitrate=12574.9kbits/s speed=0.0334x    frame=   36 fps=1.8 q=-0.0 size=    1015kB time=00:00:00.70 bitrate=11857.4kbits/s speed=0.0342x    frame=   38 fps=1.8 q=-0.0 size=    1518kB time=00:00:00.74 bitrate=16785.4kbits/s speed=0.0353x    frame=   40 fps=1.8 q=-0.0 size=    1518kB time=00:00:00.78 bitrate=15925.7kbits/s speed=0.036x    frame=   42 fps=1.9 q=-0.0 size=    1518kB time=00:00:00.82 bitrate=15149.8kbits/s speed=0.0367x    frame=   44 fps=1.9 q=-0.0 size=    1518kB time=00:00:00.86 bitrate=14445.9kbits/s speed=0.0372x    frame=   46 fps=1.9 q=-0.0 size=    1518kB time=00:00:00.90 bitrate=13804.6kbits/s speed=0.0378x    frame=   48 fps=2.0 q=-0.0 size=    1518kB time=00:00:00.94 bitrate=13217.8kbits/s speed=0.0383x    frame=   50 fps=2.0 q=-0.0 size=    2048kB time=00:00:00.98 bitrate=17102.1kbits/s speed=0.0391x    frame=   52 fps=2.0 q=-0.0 size=    2048kB time=00:00:01.02 bitrate=16432.1kbits/s speed=0.0396x    frame=   54 fps=2.0 q=-0.0 size=    2048kB time=00:00:01.06 bitrate=15812.6kbits/s speed=0.04x    frame=   56 fps=2.1 q=-0.0 size=    2048kB time=00:00:01.10 bitrate=15238.1kbits/s speed=0.0405x    frame=   58 fps=2.1 q=-0.0 size=    2048kB time=00:00:01.14 bitrate=14703.9kbits/s speed=0.0408x    frame=   60 fps=2.1 q=-0.0 size=    2048kB time=00:00:01.18 bitrate=14205.9kbits/s speed=0.0412x    frame=   61 fps=2.1 q=-0.0 size=    2580kB time=00:00:01.20 bitrate=17598.8kbits/s speed=0.0409x    frame=   63 fps=2.1 q=-0.0 size=    2580kB time=00:00:01.24 bitrate=17031.5kbits/s speed=0.0415x    frame=   65 fps=2.1 q=-0.0 size=    2580kB time=00:00:01.28 bitrate=16499.7kbits/s speed=0.0418x    frame=   67 fps=2.1 q=-0.0 size=    2580kB time=00:00:01.32 bitrate=16000.1kbits/s speed=0.0421x    frame=   69 fps=2.2 q=-0.0 size=    2580kB time=00:00:01.36 bitrate=15529.9kbits/s speed=0.0425x    frame=   71 fps=2.2 q=-0.0 size=    2580kB time=00:00:01.40 bitrate=15086.5kbits/s speed=0.0428x    frame=   73 fps=2.2 q=-0.0 size=    3110kB time=00:00:01.44 bitrate=17682.0kbits/s speed=0.043x    frame=   75 fps=2.2 q=-0.0 size=    3110kB time=00:00:01.48 bitrate=17204.4kbits/s speed=0.0436x    frame=   77 fps=2.2 q=-0.0 size=    3110kB time=00:00:01.52 bitrate=16751.9kbits/s speed=0.0438x    frame=   79 fps=2.2 q=-0.0 size=    3110kB time=00:00:01.56 bitrate=16322.7kbits/s speed=0.0441x    frame=   81 fps=2.2 q=-0.0 size=    3110kB time=00:00:01.60 bitrate=15914.9kbits/s speed=0.0443x    frame=   82 fps=2.2 q=-0.0 size=    3110kB time=00:00:01.62 bitrate=15718.5kbits/s speed=0.044x    frame=   84 fps=2.2 q=-0.0 size=    3110kB time=00:00:01.66 bitrate=15340.0kbits/s speed=0.0443x    frame=   85 fps=2.2 q=-0.0 size=    3541kB time=00:00:01.68 bitrate=17256.5kbits/s speed=0.0439x    frame=   87 fps=2.2 q=-0.0 size=    3541kB time=00:00:01.72 bitrate=16855.5kbits/s speed=0.0444x    frame=   89 fps=2.3 q=-0.0 size=    3541kB time=00:00:01.76 bitrate=16472.6kbits/s speed=0.0446x    frame=   91 fps=2.3 q=-0.0 size=    3541kB time=00:00:01.80 bitrate=16106.7kbits/s speed=0.0446x    frame=   93 fps=2.3 q=-0.0 size=    3541kB time=00:00:01.84 bitrate=15756.8kbits/s speed=0.0448x    frame=   95 fps=2.3 q=-0.0 size=    3541kB time=00:00:01.88 bitrate=15421.7kbits/s speed=0.045x    frame=   97 fps=2.3 q=-0.0 size=    3862kB time=00:00:01.92 bitrate=16469.7kbits/s speed=0.0452x    frame=   99 fps=2.3 q=-0.0 size=    3862kB time=00:00:01.96 bitrate=16133.7kbits/s speed=0.0456x    frame=  101 fps=2.3 q=-0.0 size=    3862kB time=00:00:02.00 bitrate=15811.2kbits/s speed=0.0456x    frame=  103 fps=2.3 q=-0.0 size=    3862kB time=00:00:02.04 bitrate=15501.4kbits/s speed=0.0458x    frame=  105 fps=2.3 q=-0.0 size=    3862kB time=00:00:02.08 bitrate=15203.4kbits/s speed=0.046x    frame=  107 fps=2.3 q=-0.0 size=    3862kB time=00:00:02.12 bitrate=14916.7kbits/s speed=0.0461x    frame=  109 fps=2.3 q=-0.0 size=    4190kB time=00:00:02.16 bitrate=15883.4kbits/s speed=0.0463x    frame=  111 fps=2.4 q=-0.0 size=    4190kB time=00:00:02.20 bitrate=15594.7kbits/s speed=0.0467x    frame=  113 fps=2.4 q=-0.0 size=    4190kB time=00:00:02.24 bitrate=15316.4kbits/s speed=0.0469x    frame=  115 fps=2.4 q=-0.0 size=    4190kB time=00:00:02.28 bitrate=15047.8kbits/s speed=0.047x    frame=  116 fps=2.4 q=-0.0 size=    4190kB time=00:00:02.30 bitrate=14917.0kbits/s speed=0.0468x    frame=  118 fps=2.4 q=-0.0 size=    4190kB time=00:00:02.34 bitrate=14662.1kbits/s speed=0.0469x    frame=  120 fps=2.4 q=-0.0 size=    4190kB time=00:00:02.38 bitrate=14415.8kbits/s speed=0.0471x    frame=  122 fps=2.4 q=-0.0 size=    4510kB time=00:00:02.42 bitrate=15260.6kbits/s speed=0.0474x    frame=  124 fps=2.4 q=-0.0 size=    4510kB time=00:00:02.46 bitrate=15012.6kbits/s speed=0.0475x    frame=  126 fps=2.4 q=-0.0 size=    4510kB time=00:00:02.50 bitrate=14772.5kbits/s speed=0.0477x    frame=  127 fps=2.4 q=-0.0 size=    4510kB time=00:00:02.52 bitrate=14655.3kbits/s speed=0.0474x    frame=  129 fps=2.4 q=-0.0 size=    4510kB time=00:00:02.56 bitrate=14426.4kbits/s speed=0.0475x    frame=  131 fps=2.4 q=-0.0 size=    4510kB time=00:00:02.60 bitrate=14204.5kbits/s speed=0.0476x    frame=  133 fps=2.4 q=-0.0 size=    4804kB time=00:00:02.64 bitrate=14902.4kbits/s speed=0.0476x    frame=  135 fps=2.4 q=-0.0 size=    4804kB time=00:00:02.68 bitrate=14680.1kbits/s speed=0.0479x    frame=  137 fps=2.4 q=-0.0 size=    4804kB time=00:00:02.72 bitrate=14464.3kbits/s speed=0.048x    frame=  139 fps=2.4 q=-0.0 size=    4804kB time=00:00:02.76 bitrate=14254.7kbits/s speed=0.0482x    frame=  141 fps=2.4 q=-0.0 size=    4804kB time=00:00:02.80 bitrate=14051.2kbits/s speed=0.0483x    frame=  143 fps=2.4 q=-0.0 size=    4804kB time=00:00:02.84 bitrate=13853.3kbits/s speed=0.0484x    frame=  144 fps=2.4 q=-0.0 size=    4804kB time=00:00:02.86 bitrate=13756.5kbits/s speed=0.0481x    frame=  146 fps=2.4 q=-0.0 size=    5131kB time=00:00:02.90 bitrate=14490.1kbits/s speed=0.0483x    frame=  148 fps=2.4 q=-0.0 size=    5131kB time=00:00:02.94 bitrate=14293.0kbits/s speed=0.0484x    frame=  150 fps=2.4 q=-0.0 size=    5131kB time=00:00:02.98 bitrate=14101.2kbits/s speed=0.0485x    frame=  152 fps=2.4 q=-0.0 size=    5131kB time=00:00:03.02 bitrate=13914.5kbits/s speed=0.0486x    frame=  153 fps=2.4 q=-0.0 size=    5131kB time=00:00:03.04 bitrate=13823.0kbits/s speed=0.0484x    frame=  155 fps=2.4 q=-0.0 size=    5131kB time=00:00:03.08 bitrate=13643.5kbits/s speed=0.0486x    frame=  157 fps=2.4 q=-0.0 size=    5451kB time=00:00:03.12 bitrate=14307.7kbits/s speed=0.0487x    frame=  159 fps=2.5 q=-0.0 size=    5451kB time=00:00:03.16 bitrate=14126.6kbits/s speed=0.0489x    frame=  161 fps=2.5 q=-0.0 size=    5451kB time=00:00:03.20 bitrate=13950.1kbits/s speed=0.0489x    frame=  163 fps=2.5 q=-0.0 size=    5451kB time=00:00:03.24 bitrate=13777.9kbits/s speed=0.049x    frame=  165 fps=2.5 q=-0.0 size=    5451kB time=00:00:03.28 bitrate=13610.0kbits/s speed=0.049x    frame=  167 fps=2.5 q=-0.0 size=    5451kB time=00:00:03.32 bitrate=13446.0kbits/s speed=0.0491x    frame=  169 fps=2.5 q=-0.0 size=    5803kB time=00:00:03.36 bitrate=14144.2kbits/s speed=0.0492x    frame=  171 fps=2.5 q=-0.0 size=    5803kB time=00:00:03.40 bitrate=13977.8kbits/s speed=0.0495x    frame=  173 fps=2.5 q=-0.0 size=    5803kB time=00:00:03.44 bitrate=13815.3kbits/s speed=0.0494x    frame=  175 fps=2.5 q=-0.0 size=    5803kB time=00:00:03.48 bitrate=13656.6kbits/s speed=0.0495x    frame=  177 fps=2.5 q=-0.0 size=    5803kB time=00:00:03.52 bitrate=13501.4kbits/s speed=0.0495x    frame=  179 fps=2.5 q=-0.0 size=    5803kB time=00:00:03.56 bitrate=13349.8kbits/s speed=0.0496x    frame=  181 fps=2.5 q=-0.0 size=    6118kB time=00:00:03.60 bitrate=13918.1kbits/s speed=0.0497x    frame=  183 fps=2.5 q=-0.0 size=    6118kB time=00:00:03.64 bitrate=13765.2kbits/s speed=0.0499x    frame=  185 fps=2.5 q=-0.0 size=    6118kB time=00:00:03.68 bitrate=13615.7kbits/s speed=0.05x    frame=  187 fps=2.5 q=-0.0 size=    6118kB time=00:00:03.72 bitrate=13469.3kbits/s speed=0.05x    frame=  188 fps=2.5 q=-0.0 size=    6118kB time=00:00:03.74 bitrate=13397.3kbits/s speed=0.0498x    frame=  190 fps=2.5 q=-0.0 size=    6118kB time=00:00:03.78 bitrate=13255.5kbits/s speed=0.0499x    frame=  192 fps=2.5 q=-0.0 size=    6118kB time=00:00:03.82 bitrate=13116.8kbits/s speed=0.05x    frame=  194 fps=2.5 q=-0.0 size=    6414kB time=00:00:03.86 bitrate=13609.3kbits/s speed=0.0501x    frame=  196 fps=2.5 q=-0.0 size=    6414kB time=00:00:03.90 bitrate=13469.8kbits/s speed=0.0502x    frame=  198 fps=2.5 q=-0.0 size=    6414kB time=00:00:03.94 bitrate=13333.1kbits/s speed=0.0503x    frame=  200 fps=2.5 q=-0.0 size=    6414kB time=00:00:03.98 bitrate=13199.1kbits/s speed=0.0503x    frame=  202 fps=2.5 q=-0.0 size=    6414kB time=00:00:04.02 bitrate=13067.8kbits/s speed=0.0504x    frame=  204 fps=2.5 q=-0.0 size=    6414kB time=00:00:04.06 bitrate=12939.1kbits/s speed=0.0505x    frame=  206 fps=2.5 q=-0.0 size=    6744kB time=00:00:04.10 bitrate=13472.5kbits/s speed=0.0506x    frame=  208 fps=2.5 q=-0.0 size=    6744kB time=00:00:04.14 bitrate=13342.4kbits/s speed=0.0507x    frame=  210 fps=2.5 q=-0.0 size=    6744kB time=00:00:04.18 bitrate=13214.7kbits/s speed=0.0507x    frame=  212 fps=2.5 q=-0.0 size=    6744kB time=00:00:04.22 bitrate=13089.5kbits/s speed=0.0508x    frame=  214 fps=2.6 q=-0.0 size=    6744kB time=00:00:04.26 bitrate=12966.6kbits/s speed=0.0508x    frame=  216 fps=2.6 q=-0.0 size=    6744kB time=00:00:04.30 bitrate=12846.0kbits/s speed=0.0509x    frame=  218 fps=2.6 q=-0.0 size=    7087kB time=00:00:04.34 bitrate=13374.5kbits/s speed=0.051x    frame=  220 fps=2.6 q=-0.0 size=    7087kB time=00:00:04.38 bitrate=13252.4kbits/s speed=0.051x    frame=  222 fps=2.6 q=-0.0 size=    7087kB time=00:00:04.42 bitrate=13132.5kbits/s speed=0.0511x    frame=  224 fps=2.6 q=-0.0 size=    7087kB time=00:00:04.46 bitrate=13014.7kbits/s speed=0.0511x    frame=  226 fps=2.6 q=-0.0 size=    7087kB time=00:00:04.50 bitrate=12899.0kbits/s speed=0.0511x    frame=  228 fps=2.6 q=-0.0 size=    7087kB time=00:00:04.54 bitrate=12785.4kbits/s speed=0.0512x    frame=  230 fps=2.6 q=-0.0 size=    7383kB time=00:00:04.58 bitrate=13202.7kbits/s speed=0.0513x    frame=  232 fps=2.6 q=-0.0 size=    7383kB time=00:00:04.62 bitrate=13088.4kbits/s speed=0.0514x    frame=  234 fps=2.6 q=-0.0 size=    7383kB time=00:00:04.66 bitrate=12976.0kbits/s speed=0.0514x    frame=  236 fps=2.6 q=-0.0 size=    7383kB time=00:00:04.70 bitrate=12865.6kbits/s speed=0.0515x    frame=  238 fps=2.6 q=-0.0 size=    7383kB time=00:00:04.74 bitrate=12757.1kbits/s speed=0.0513x    frame=  240 fps=2.6 q=-0.0 size=    7383kB time=00:00:04.78 bitrate=12650.4kbits/s speed=0.0514x    frame=  242 fps=2.6 q=-0.0 size=    7683kB time=00:00:04.82 bitrate=13055.2kbits/s speed=0.0515x    frame=  244 fps=2.6 q=-0.0 size=    7683kB time=00:00:04.86 bitrate=12947.8kbits/s speed=0.0515x    frame=  246 fps=2.6 q=-0.0 size=    7683kB time=00:00:04.90 bitrate=12842.1kbits/s speed=0.0516x    frame=  248 fps=2.6 q=-0.0 size=    7683kB time=00:00:04.94 bitrate=12738.2kbits/s speed=0.0516x    frame=  250 fps=2.6 q=-0.0 size=    7683kB time=00:00:04.98 bitrate=12635.9kbits/s speed=0.0517x    frame=  252 fps=2.6 q=-0.0 size=    7683kB time=00:00:05.02 bitrate=12535.2kbits/s speed=0.0517x    frame=  254 fps=2.6 q=-0.0 size=    8029kB time=00:00:05.06 bitrate=12996.8kbits/s speed=0.0518x    frame=  256 fps=2.6 q=-0.0 size=    8029kB time=00:00:05.10 bitrate=12894.9kbits/s speed=0.0519x    frame=  258 fps=2.6 q=-0.0 size=    8029kB time=00:00:05.14 bitrate=12794.6kbits/s speed=0.0519x    frame=  260 fps=2.6 q=-0.0 size=    8029kB time=00:00:05.18 bitrate=12695.8kbits/s speed=0.0519x    frame=  262 fps=2.6 q=-0.0 size=    8029kB time=00:00:05.22 bitrate=12598.5kbits/s speed=0.0519x    frame=  264 fps=2.6 q=-0.0 size=    8029kB time=00:00:05.26 bitrate=12502.7kbits/s speed=0.052x    frame=  266 fps=2.6 q=-0.0 size=    8378kB time=00:00:05.30 bitrate=12947.5kbits/s speed=0.0521x    frame=  268 fps=2.6 q=-0.0 size=    8378kB time=00:00:05.34 bitrate=12850.5kbits/s speed=0.0521x    frame=  270 fps=2.6 q=-0.0 size=    8378kB time=00:00:05.38 bitrate=12755.0kbits/s speed=0.0522x    frame=  272 fps=2.6 q=-0.0 size=    8378kB time=00:00:05.42 bitrate=12660.9kbits/s speed=0.0522x    frame=  274 fps=2.6 q=-0.0 size=    8378kB time=00:00:05.46 bitrate=12568.2kbits/s speed=0.0522x    frame=  276 fps=2.6 q=-0.0 size=    8378kB time=00:00:05.50 bitrate=12476.8kbits/s speed=0.0523x    frame=  278 fps=2.6 q=-0.0 size=    8674kB time=00:00:05.54 bitrate=12823.5kbits/s speed=0.0524x    frame=  280 fps=2.6 q=-0.0 size=    8674kB time=00:00:05.58 bitrate=12731.6kbits/s speed=0.0524x    frame=  282 fps=2.6 q=-0.0 size=    8674kB time=00:00:05.62 bitrate=12641.0kbits/s speed=0.0525x    frame=  284 fps=2.6 q=-0.0 size=    8674kB time=00:00:05.66 bitrate=12551.6kbits/s speed=0.0525x    frame=  286 fps=2.6 q=-0.0 size=    8674kB time=00:00:05.70 bitrate=12463.6kbits/s speed=0.0525x    frame=  288 fps=2.6 q=-0.0 size=    8674kB time=00:00:05.74 bitrate=12376.7kbits/s speed=0.0526x    frame=  290 fps=2.6 q=-0.0 size=    9029kB time=00:00:05.78 bitrate=12794.2kbits/s speed=0.0526x    frame=  292 fps=2.6 q=-0.0 size=    9029kB time=00:00:05.82 bitrate=12706.3kbits/s speed=0.0527x    frame=  294 fps=2.6 q=-0.0 size=    9029kB time=00:00:05.86 bitrate=12619.5kbits/s speed=0.0527x    frame=  296 fps=2.6 q=-0.0 size=    9029kB time=00:00:05.90 bitrate=12534.0kbits/s speed=0.0527x    frame=  298 fps=2.6 q=-0.0 size=    9029kB time=00:00:05.94 bitrate=12449.6kbits/s speed=0.0528x    frame=  300 fps=2.6 q=-0.0 size=    9029kB time=00:00:05.98 bitrate=12366.3kbits/s speed=0.0528x    frame=  302 fps=2.7 q=-0.0 size=    9321kB time=00:00:06.02 bitrate=12682.2kbits/s speed=0.0529x    frame=  304 fps=2.7 q=-0.0 size=    9321kB time=00:00:06.06 bitrate=12598.5kbits/s speed=0.0529x    frame=  306 fps=2.7 q=-0.0 size=    9321kB time=00:00:06.10 bitrate=12515.9kbits/s speed=0.053x    frame=  308 fps=2.7 q=-0.0 size=    9321kB time=00:00:06.14 bitrate=12434.4kbits/s speed=0.053x    frame=  310 fps=2.7 q=-0.0 size=    9321kB time=00:00:06.18 bitrate=12353.9kbits/s speed=0.053x    frame=  312 fps=2.7 q=-0.0 size=    9321kB time=00:00:06.22 bitrate=12274.5kbits/s speed=0.053x    frame=  314 fps=2.7 q=-0.0 size=    9631kB time=00:00:06.26 bitrate=12601.3kbits/s speed=0.0531x    frame=  316 fps=2.7 q=-0.0 size=    9631kB time=00:00:06.30 bitrate=12521.3kbits/s speed=0.0532x    frame=  318 fps=2.7 q=-0.0 size=    9631kB time=00:00:06.34 bitrate=12442.3kbits/s speed=0.0532x    frame=  320 fps=2.7 q=-0.0 size=    9631kB time=00:00:06.38 bitrate=12364.3kbits/s speed=0.0532x    frame=  322 fps=2.7 q=-0.0 size=    9631kB time=00:00:06.42 bitrate=12287.3kbits/s speed=0.0532x    frame=  324 fps=2.7 q=-0.0 size=    9631kB time=00:00:06.46 bitrate=12211.2kbits/s speed=0.0532x    frame=  326 fps=2.7 q=-0.0 size=    9983kB time=00:00:06.50 bitrate=12579.7kbits/s speed=0.0533x    frame=  328 fps=2.7 q=-0.0 size=    9983kB time=00:00:06.54 bitrate=12502.8kbits/s speed=0.0533x    frame=  330 fps=2.7 q=-0.0 size=    9983kB time=00:00:06.58 bitrate=12426.8kbits/s speed=0.0533x    frame=  332 fps=2.7 q=-0.0 size=    9983kB time=00:00:06.62 bitrate=12351.7kbits/s speed=0.0533x    frame=  334 fps=2.7 q=-0.0 size=    9983kB time=00:00:06.66 bitrate=12277.5kbits/s speed=0.0533x    frame=  336 fps=2.7 q=-0.0 size=    9983kB time=00:00:06.70 bitrate=12204.3kbits/s speed=0.0534x    frame=  338 fps=2.7 q=-0.0 size=   10264kB time=00:00:06.74 bitrate=12473.8kbits/s speed=0.0534x    frame=  340 fps=2.7 q=-0.0 size=   10264kB time=00:00:06.78 bitrate=12400.3kbits/s speed=0.0535x    frame=  342 fps=2.7 q=-0.0 size=   10264kB time=00:00:06.82 bitrate=12327.5kbits/s speed=0.0535x    frame=  344 fps=2.7 q=-0.0 size=   10264kB time=00:00:06.86 bitrate=12255.7kbits/s speed=0.0535x    frame=  346 fps=2.7 q=-0.0 size=   10264kB time=00:00:06.90 bitrate=12184.6kbits/s speed=0.0535x    frame=  348 fps=2.7 q=-0.0 size=   10264kB time=00:00:06.94 bitrate=12114.4kbits/s speed=0.0535x    frame=  350 fps=2.7 q=-0.0 size=   10624kB time=00:00:06.98 bitrate=12467.5kbits/s speed=0.0536x    frame=  352 fps=2.7 q=-0.0 size=   10624kB time=00:00:07.02 bitrate=12396.5kbits/s speed=0.0537x    frame=  354 fps=2.7 q=-0.0 size=   10624kB time=00:00:07.06 bitrate=12326.3kbits/s speed=0.0537x    frame=  356 fps=2.7 q=-0.0 size=   10624kB time=00:00:07.10 bitrate=12256.8kbits/s speed=0.0537x    frame=  358 fps=2.7 q=-0.0 size=   10624kB time=00:00:07.14 bitrate=12188.2kbits/s speed=0.0537x    frame=  360 fps=2.7 q=-0.0 size=   10624kB time=00:00:07.18 bitrate=12120.3kbits/s speed=0.0537x    frame=  362 fps=2.7 q=-0.0 size=   10931kB time=00:00:07.22 bitrate=12400.9kbits/s speed=0.0538x    frame=  364 fps=2.7 q=-0.0 size=   10931kB time=00:00:07.26 bitrate=12332.6kbits/s speed=0.0538x    frame=  366 fps=2.7 q=-0.0 size=   10931kB time=00:00:07.30 bitrate=12265.0kbits/s speed=0.0538x    frame=  368 fps=2.7 q=-0.0 size=   10931kB time=00:00:07.34 bitrate=12198.2kbits/s speed=0.0539x    frame=  370 fps=2.7 q=-0.0 size=   10931kB time=00:00:07.38 bitrate=12132.1kbits/s speed=0.0539x    frame=  372 fps=2.7 q=-0.0 size=   10931kB time=00:00:07.42 bitrate=12066.7kbits/s speed=0.0539x    frame=  374 fps=2.7 q=-0.0 size=   11269kB time=00:00:07.46 bitrate=12373.0kbits/s speed=0.054x    frame=  376 fps=2.7 q=-0.0 size=   11269kB time=00:00:07.50 bitrate=12307.1kbits/s speed=0.054x    frame=  378 fps=2.7 q=-0.0 size=   11269kB time=00:00:07.54 bitrate=12241.8kbits/s speed=0.054x    frame=  380 fps=2.7 q=-0.0 size=   11269kB time=00:00:07.58 bitrate=12177.2kbits/s speed=0.054x    frame=  382 fps=2.7 q=-0.0 size=   11269kB time=00:00:07.62 bitrate=12113.3kbits/s speed=0.054x    frame=  384 fps=2.7 q=-0.0 size=   11269kB time=00:00:07.66 bitrate=12050.0kbits/s speed=0.054x    frame=  386 fps=2.7 q=-0.0 size=   11608kB time=00:00:07.70 bitrate=12348.2kbits/s speed=0.0541x    frame=  388 fps=2.7 q=-0.0 size=   11608kB time=00:00:07.74 bitrate=12284.4kbits/s speed=0.0541x    frame=  390 fps=2.7 q=-0.0 size=   11608kB time=00:00:07.78 bitrate=12221.3kbits/s speed=0.0541x    frame=  392 fps=2.7 q=-0.0 size=   11608kB time=00:00:07.82 bitrate=12158.7kbits/s speed=0.0541x    frame=  394 fps=2.7 q=-0.0 size=   11608kB time=00:00:07.86 bitrate=12096.9kbits/s speed=0.0542x    frame=  396 fps=2.7 q=-0.0 size=   11608kB time=00:00:07.90 bitrate=12035.6kbits/s speed=0.0542x    frame=  398 fps=2.7 q=-0.0 size=   11892kB time=00:00:07.94 bitrate=12267.8kbits/s speed=0.0542x    frame=  400 fps=2.7 q=-0.0 size=   11892kB time=00:00:07.98 bitrate=12206.3kbits/s speed=0.0542x    frame=  402 fps=2.7 q=-0.0 size=   11892kB time=00:00:08.02 bitrate=12145.5kbits/s speed=0.0543x    frame=  404 fps=2.7 q=-0.0 size=   11892kB time=00:00:08.06 bitrate=12085.2kbits/s speed=0.0543x    frame=  406 fps=2.7 q=-0.0 size=   11892kB time=00:00:08.10 bitrate=12025.5kbits/s speed=0.0543x    frame=  408 fps=2.7 q=-0.0 size=   11892kB time=00:00:08.14 bitrate=11966.4kbits/s speed=0.0543x    frame=  410 fps=2.7 q=-0.0 size=   12245kB time=00:00:08.18 bitrate=12262.0kbits/s speed=0.0543x    frame=  412 fps=2.7 q=-0.0 size=   12245kB time=00:00:08.22 bitrate=12202.3kbits/s speed=0.0544x    frame=  414 fps=2.7 q=-0.0 size=   12245kB time=00:00:08.26 bitrate=12143.2kbits/s speed=0.0544x    frame=  416 fps=2.7 q=-0.0 size=   12245kB time=00:00:08.30 bitrate=12084.7kbits/s speed=0.0543x    frame=  418 fps=2.7 q=-0.0 size=   12245kB time=00:00:08.34 bitrate=12026.7kbits/s speed=0.0543x    frame=  420 fps=2.7 q=-0.0 size=   12245kB time=00:00:08.38 bitrate=11969.3kbits/s speed=0.0543x    frame=  422 fps=2.7 q=-0.0 size=   12521kB time=00:00:08.42 bitrate=12180.5kbits/s speed=0.0544x    frame=  424 fps=2.7 q=-0.0 size=   12521kB time=00:00:08.46 bitrate=12122.9kbits/s speed=0.0544x    frame=  426 fps=2.7 q=-0.0 size=   12521kB time=00:00:08.50 bitrate=12065.9kbits/s speed=0.0544x    frame=  428 fps=2.7 q=-0.0 size=   12521kB time=00:00:08.54 bitrate=12009.4kbits/s speed=0.0544x    frame=  430 fps=2.7 q=-0.0 size=   12521kB time=00:00:08.58 bitrate=11953.4kbits/s speed=0.0544x    frame=  432 fps=2.7 q=-0.0 size=   12521kB time=00:00:08.62 bitrate=11897.9kbits/s speed=0.0544x    frame=  434 fps=2.7 q=-0.0 size=   12878kB time=00:00:08.66 bitrate=12180.8kbits/s speed=0.0545x    frame=  436 fps=2.7 q=-0.0 size=   12878kB time=00:00:08.70 bitrate=12124.8kbits/s speed=0.0545x    frame=  438 fps=2.7 q=-0.0 size=   12878kB time=00:00:08.74 bitrate=12069.3kbits/s speed=0.0545x    frame=  440 fps=2.7 q=-0.0 size=   12878kB time=00:00:08.78 bitrate=12014.3kbits/s speed=0.0545x    frame=  442 fps=2.7 q=-0.0 size=   12878kB time=00:00:08.82 bitrate=11959.9kbits/s speed=0.0545x    frame=  444 fps=2.7 q=-0.0 size=   12878kB time=00:00:08.86 bitrate=11905.9kbits/s speed=0.0545x    frame=  446 fps=2.7 q=-0.0 size=   13164kB time=00:00:08.90 bitrate=12115.1kbits/s speed=0.0546x    frame=  448 fps=2.7 q=-0.0 size=   13164kB time=00:00:08.94 bitrate=12060.9kbits/s speed=0.0546x    frame=  450 fps=2.7 q=-0.0 size=   13164kB time=00:00:08.98 bitrate=12007.2kbits/s speed=0.0546x    frame=  452 fps=2.7 q=-0.0 size=   13164kB time=00:00:09.02 bitrate=11953.9kbits/s speed=0.0546x    frame=  454 fps=2.7 q=-0.0 size=   13164kB time=00:00:09.06 bitrate=11901.2kbits/s speed=0.0546x    frame=  456 fps=2.7 q=-0.0 size=   13164kB time=00:00:09.10 bitrate=11848.9kbits/s speed=0.0546x    frame=  458 fps=2.7 q=-0.0 size=   13528kB time=00:00:09.14 bitrate=12123.3kbits/s speed=0.0546x    frame=  460 fps=2.7 q=-0.0 size=   13528kB time=00:00:09.18 bitrate=12070.4kbits/s speed=0.0547x    frame=  462 fps=2.7 q=-0.0 size=   13528kB time=00:00:09.22 bitrate=12018.1kbits/s speed=0.0547x    frame=  464 fps=2.7 q=-0.0 size=   13528kB time=00:00:09.26 bitrate=11966.2kbits/s speed=0.0547x    frame=  466 fps=2.7 q=-0.0 size=   13528kB time=00:00:09.30 bitrate=11914.7kbits/s speed=0.0547x    frame=  468 fps=2.7 q=-0.0 size=   13528kB time=00:00:09.34 bitrate=11863.7kbits/s speed=0.0547x    frame=  470 fps=2.7 q=-0.0 size=   13805kB time=00:00:09.38 bitrate=12055.5kbits/s speed=0.0547x    frame=  472 fps=2.7 q=-0.0 size=   13805kB time=00:00:09.42 bitrate=12004.3kbits/s speed=0.0548x    frame=  474 fps=2.7 q=-0.0 size=   13805kB time=00:00:09.46 bitrate=11953.6kbits/s speed=0.0548x    frame=  476 fps=2.7 q=-0.0 size=   13805kB time=00:00:09.50 bitrate=11903.2kbits/s speed=0.0548x    frame=  478 fps=2.7 q=-0.0 size=   13805kB time=00:00:09.54 bitrate=11853.3kbits/s speed=0.0548x    frame=  480 fps=2.7 q=-0.0 size=   13805kB time=00:00:09.58 bitrate=11803.8kbits/s speed=0.0548x    frame=  482 fps=2.7 q=-0.0 size=   14144kB time=00:00:09.62 bitrate=12043.4kbits/s speed=0.0548x    frame=  484 fps=2.7 q=-0.0 size=   14144kB time=00:00:09.66 bitrate=11993.5kbits/s speed=0.0549x    frame=  486 fps=2.7 q=-0.0 size=   14144kB time=00:00:09.70 bitrate=11944.1kbits/s speed=0.0549x    frame=  488 fps=2.7 q=-0.0 size=   14144kB time=00:00:09.74 bitrate=11895.0kbits/s speed=0.0549x    frame=  490 fps=2.7 q=-0.0 size=   14144kB time=00:00:09.78 bitrate=11846.4kbits/s speed=0.0549x    frame=  492 fps=2.7 q=-0.0 size=   14144kB time=00:00:09.82 bitrate=11798.1kbits/s speed=0.0549x    frame=  494 fps=2.8 q=-0.0 size=   14451kB time=00:00:09.86 bitrate=12005.2kbits/s speed=0.0549x    frame=  496 fps=2.8 q=-0.0 size=   14451kB time=00:00:09.90 bitrate=11956.7kbits/s speed=0.0549x    frame=  498 fps=2.8 q=-0.0 size=   14451kB time=00:00:09.94 bitrate=11908.6kbits/s speed=0.0549x    frame=  500 fps=2.8 q=-0.0 size=   14451kB time=00:00:09.98 bitrate=11860.8kbits/s speed=0.0549x    frame=  500 fps=2.7 q=-0.0 Lsize=   14692kB time=00:00:09.98 bitrate=12058.8kbits/s speed=0.0548x    
video:14683kB audio:0kB subtitle:0kB other streams:0kB global headers:3kB muxing overhead: 0.061028%
bench: utime=155.612s
bench: maxrss=202796kB
